<svg width="31" height="20" viewBox="0 0 31 20" fill="#322C2C" xmlns="http://www.w3.org/2000/svg">
<g clip-path="url(#clip0_136_71)">
<mask id="mask0_136_71" style="mask-type:alpha" maskUnits="userSpaceOnUse" x="0" y="-1" width="30" height="22">
<rect y="-1" width="30" height="22" fill="#322C2C"/>
</mask>
<g mask="url(#mask0_136_71)">
<path fill-rule="evenodd" clip-rule="evenodd" d="M19.4715 3.42566H27.1035V1.24011H19.4715V3.42566ZM23.2335 7.81506C21.531 7.81506 20.238 8.86981 20.1135 10.8187H26.2215C25.8075 8.50574 24.78 7.81506 23.2335 7.81506ZM23.472 16.8546C25.044 16.8546 26.1975 15.8616 26.433 15.025H29.739C28.794 18.0507 26.8425 19.7499 23.3385 19.7499C18.867 19.7499 16.3575 16.5696 16.3575 12.3495C16.3575 2.41125 30.6975 2.05495 29.9775 13.2775H20.1135C20.2095 15.5564 21.15 16.8546 23.472 16.8546ZM8.595 16.4174C10.3995 16.4174 11.6625 15.7232 11.6625 13.8502C11.6625 11.9075 10.5465 11.0648 8.673 11.0648H4.152V16.4174H8.595ZM8.3565 8.14319C9.858 8.14319 10.8945 7.44426 10.8945 5.82068C10.8945 4.11035 9.6885 3.5824 8.04 3.5824H4.152V8.14319H8.3565ZM8.886 0.249878C12.4425 0.249878 14.9145 1.42543 14.9145 5.08313C14.9145 6.89417 14.187 8.24381 12.3495 9.1532C14.7015 9.8519 15.8145 11.6865 15.8145 14.097C15.8145 17.9236 12.78 19.7499 9.15 19.7499H0V0.249878H8.886Z" fill="#322C2C"/>
</g>
</g>
<defs>
<clipPath id="clip0_136_71">
<rect width="31" height="20" fill="#322C2C"/>
</clipPath>
</defs>
</svg>
