<svg width="1100" height="1063" viewBox="0 0 1100 1063" fill="none" xmlns="http://www.w3.org/2000/svg">
<path fill-rule="evenodd" clip-rule="evenodd" d="M301.524 207.685C295.697 188.619 306.43 168.438 325.497 162.612L539.504 97.2094C558.571 91.3826 578.751 102.115 584.578 121.182L621.783 242.925L731.808 125.04C745.411 110.465 768.261 109.669 782.845 123.264L946.429 275.748C961.013 289.342 961.808 312.178 948.205 326.753L834.318 448.777L996.961 486.292C1016.39 490.773 1028.49 510.152 1024 529.576L973.602 747.455C969.109 766.879 949.718 778.993 930.291 774.512L773.164 738.27L808.247 853.07C814.074 872.136 803.341 892.316 784.275 898.143L570.267 963.545C551.2 969.372 531.02 958.639 525.193 939.573L488.454 819.353L370.692 945.529C357.089 960.104 334.239 960.899 319.655 947.305L156.07 794.821C141.487 781.227 140.692 758.391 154.295 743.816L268.182 621.792L105.54 584.277C86.1127 579.796 74.0065 560.417 78.4996 540.993L128.899 323.114C133.392 303.69 152.783 291.576 172.21 296.057L340.386 334.848L301.524 207.685Z" fill="#F9F3EF"/>
</svg>
