<svg width="30" height="22" viewBox="0 0 30 22" fill="#322C2C" xmlns="http://www.w3.org/2000/svg">
<mask id="mask0_253_20" style="mask-type:alpha" maskUnits="userSpaceOnUse" x="0" y="0" width="30" height="22">
<rect width="30" height="22" fill="#322C2C"/>
</mask>
<g mask="url(#mask0_253_20)">
<path d="M9.12098 7.05341H4.70445C4.50844 7.05341 4.34961 7.2123 4.34961 7.40824V21.5967C4.34961 21.7927 4.50844 21.9515 4.70445 21.9515H9.12098C9.317 21.9515 9.47582 21.7927 9.47582 21.5967V7.40824C9.47582 7.2123 9.317 7.05341 9.12098 7.05341Z" fill="#322C2C"/>
<path d="M6.91436 0C5.30737 0 4 1.30595 4 2.91117C4 4.5171 5.30737 5.82354 6.91436 5.82354C8.52008 5.82354 9.82638 4.51703 9.82638 2.91117C9.82645 1.30595 8.52008 0 6.91436 0Z" fill="#322C2C"/>
<path d="M20.3549 6.70078C18.581 6.70078 17.2698 7.46332 16.4744 8.32977V7.40825C16.4744 7.21231 16.3156 7.05341 16.1196 7.05341H11.89C11.694 7.05341 11.5352 7.21231 11.5352 7.40825V21.5967C11.5352 21.7927 11.694 21.9515 11.89 21.9515H16.2969C16.4929 21.9515 16.6517 21.7927 16.6517 21.5967V14.5767C16.6517 12.2111 17.2943 11.2895 18.9433 11.2895C20.7392 11.2895 20.8819 12.767 20.8819 14.6984V21.5968C20.8819 21.7928 21.0407 21.9516 21.2367 21.9516H25.6452C25.8413 21.9516 26.0001 21.7928 26.0001 21.5968V13.8142C26.0001 10.2966 25.3294 6.70078 20.3549 6.70078Z" fill="#322C2C"/>
</g>
</svg>
