<svg xmlns="http://www.w3.org/2000/svg" version="1.1" viewBox="-5.0 -10.0 110.0 135.0">
 <path d="m63.57 53.199-5.5742 5.5742c-4.418 4.4141-11.578 4.4141-15.996 0l-5.5742-5.5742-30.066 30.066c0.90625 0.43359 1.9023 0.66406 2.9258 0.66406h81.43c1.0234 0 2.0195-0.23047 2.9258-0.66406z" fill-rule="evenodd"/>
 <path d="m66.77 50 30.066 30.066c0.43359-0.90234 0.66406-1.9023 0.66406-2.9219v-54.285c0-1.0234-0.23047-2.0195-0.66406-2.9258z" fill-rule="evenodd"/>
 <path d="m33.23 50-30.066-30.066c-0.43359 0.90625-0.66406 1.9023-0.66406 2.9258v54.285c0 1.0234 0.23047 2.0195 0.66406 2.9258z" fill-rule="evenodd"/>
 <path d="m93.641 16.734c-0.90625-0.43359-1.9023-0.66406-2.9258-0.66406h-81.43c-1.0234 0-2.0195 0.23047-2.9258 0.66406l38.84 38.84c2.6484 2.6523 6.9453 2.6523 9.5938 0z" fill-rule="evenodd"/>
<text x="0.0" y="117.5" font-size="5.0" font-weight="bold" font-family="Arbeit Regular, Helvetica, Arial-Unicode, Arial, Sans-serif" fill="#000000">Created by karl</text><text x="0.0" y="122.5" font-size="5.0" font-weight="bold" font-family="Arbeit Regular, Helvetica, Arial-Unicode, Arial, Sans-serif" fill="#322c2c">from Noun Project</text></svg>