<svg xmlns="http://www.w3.org/2000/svg" version="1.1" viewBox="-5.0 -10.0 110.0 135.0">
 <path d="m41.84 35.141c2.4219-2.5117 2.4414-5.5586 0.011718-8.0508-2.9609-3.0391-5.9883-6.0195-8.9883-9.0195-0.71875-0.71094-1.5586-1.2617-2.5391-1.5391-2.1602-0.62109-3.9805 0.070312-5.5312 1.5703-1.7109 1.6484-3.3086 3.4219-5.0703 5.0117-2.4297 2.2109-3.5508 4.9102-3.4297 7.7305 0 2.9492 0.48047 5.5508 1.4609 8.4492 2.5898 7.6406 6.6914 14.398 11.789 20.602 7.6484 9.2891 16.922 16.449 28.02 21.191 3.4688 1.4805 7.0781 2.4609 10.879 2.6094 2.8984 0.10938 5.5586-0.57031 7.6914-2.6484 1.9688-1.9219 3.8984-3.8906 5.8203-5.8594 0.91016-0.94141 1.5508-2.0391 1.7188-3.3711 0.25-1.9414-0.53125-3.5-1.8516-4.8281-2.0703-2.0898-4.1602-4.1602-6.25-6.2383-1.0586-1.0508-2.0703-2.1602-3.2109-3.1016-2.1914-1.8086-4.8516-1.75-7.0312 0.070312-0.42188 0.35156-0.80078 0.73828-1.1914 1.1289-1.5898 1.5898-3.1719 3.1797-4.7617 4.7695-0.32031 0.32031-0.64062 0.60937-1.1289 0.33984-1.4297-0.76953-2.9102-1.4492-4.2695-2.3203-5.2812-3.3789-9.6602-7.75-13.551-12.641-1.6484-2.0703-3.0898-4.2812-4.1719-6.7109-0.46875-1.0586-0.46094-1.1016 0.35156-1.9102 1.75-1.7383 3.5195-3.4688 5.2383-5.2383z"/>
<text x="0.0" y="117.5" font-size="5.0" font-weight="bold" font-family="Arbeit Regular, Helvetica, Arial-Unicode, Arial, Sans-serif" fill="#000000">Created by praveen patchu</text><text x="0.0" y="122.5" font-size="5.0" font-weight="bold" font-family="Arbeit Regular, Helvetica, Arial-Unicode, Arial, Sans-serif" fill="#000000">from Noun Project</text></svg>